<svg width="129" height="40" viewBox="0 0 129 40" fill="none" xmlns="http://www.w3.org/2000/svg">
<g clip-path="url(#clip0_1_136)">
<path d="M67.5677 10.0501C67.5677 11.4917 66.4061 12.6525 64.9645 12.6525C63.523 12.6525 62.3622 11.4917 62.3622 10.0501C62.3622 8.60855 63.4834 7.44776 64.9645 7.44776C66.4469 7.48776 67.5677 8.64894 67.5677 10.0501ZM56.8367 15.2956V15.9364C56.8367 15.9364 55.5959 14.334 52.9532 14.334C48.5893 14.334 45.1853 17.6576 45.1853 22.2619C45.1853 26.8266 48.5493 30.1897 52.9532 30.1897C55.6359 30.1897 56.8367 28.5481 56.8367 28.5481V29.2285C56.8367 29.5489 57.0775 29.7885 57.3975 29.7885H60.6402V14.7332H57.3975C57.0775 14.7344 56.8367 15.0152 56.8367 15.2956ZM56.8367 24.9446C56.2367 25.8258 55.0351 26.5866 53.594 26.5866C51.0316 26.5866 49.0693 24.985 49.0693 22.2619C49.0693 19.5391 51.0316 17.9376 53.594 17.9376C54.9955 17.9376 56.2767 18.7383 56.8367 19.5791V24.9446ZM63.043 14.7344H66.8865V29.7897H63.043V14.7344ZM120.46 14.3336C117.817 14.3336 116.576 15.936 116.576 15.936V7.48776H112.732V29.7897H115.976C116.296 29.7897 116.536 29.5093 116.536 29.2289V28.5485C116.536 28.5485 117.777 30.1901 120.419 30.1901C124.784 30.1901 128.187 26.8278 128.187 22.2631C128.187 17.6984 124.784 14.3336 120.46 14.3336ZM119.819 26.5462C118.337 26.5462 117.176 25.7862 116.576 24.9046V19.5391C117.176 18.7383 118.457 17.8976 119.819 17.8976C122.381 17.8976 124.343 19.4991 124.343 22.2219C124.343 24.9446 122.382 26.5462 119.819 26.5462ZM110.73 20.8611V29.8297H106.886V21.3011C106.886 18.8191 106.085 17.8176 103.925 17.8176C102.764 17.8176 101.562 18.4183 100.8 19.2995V29.7901H96.9575V14.7348H99.9994C100.32 14.7348 100.56 15.0152 100.56 15.2956V15.9364C101.681 14.7748 103.163 14.334 104.644 14.334C106.326 14.334 107.727 14.8152 108.848 15.776C110.209 16.8972 110.73 18.3384 110.73 20.8611ZM87.6269 14.3336C84.9849 14.3336 83.7434 15.936 83.7434 15.936V7.48776H79.8998V29.7897H83.1426C83.463 29.7897 83.7034 29.5093 83.7034 29.2289V28.5485C83.7034 28.5485 84.9449 30.1901 87.5869 30.1901C91.9516 30.1901 95.3547 26.8278 95.3547 22.2631C95.3947 17.698 91.9916 14.3336 87.6269 14.3336ZM86.9861 26.5462C85.5049 26.5462 84.3442 25.7862 83.7434 24.9046V19.5391C84.3442 18.7383 85.6253 17.8976 86.9861 17.8976C89.5493 17.8976 91.5108 19.4991 91.5108 22.2219C91.5108 24.9446 89.5493 26.5462 86.9861 26.5462ZM76.5763 14.3336C77.7371 14.3336 78.3379 14.5344 78.3379 14.5344V18.0975C78.3379 18.0975 75.1347 17.0164 73.1332 19.2991V29.8293H69.2888V14.7344H72.5324C72.8528 14.7344 73.0924 15.0148 73.0924 15.2952V15.936C73.8139 15.0948 75.3755 14.3336 76.5763 14.3336ZM36.6575 28.4282C36.4575 27.9478 36.2571 27.4274 36.0571 26.9866C35.7363 26.2662 35.4159 25.585 35.1363 24.9446L35.0963 24.9046C32.3332 18.8983 29.3708 12.8129 26.2473 6.80738L26.1273 6.56658C25.7988 5.94358 25.4786 5.31621 25.1669 4.68462C24.7661 3.96344 24.3661 3.20345 23.7254 2.48226C22.4442 0.880694 20.6022 -0.000488281 18.6407 -0.000488281C16.6383 -0.000488281 14.8367 0.880699 13.516 2.40187C12.9152 3.12225 12.4744 3.88304 12.0744 4.60423C11.7619 5.23542 11.4418 5.86278 11.114 6.48619L10.9936 6.72698C7.91048 12.7325 4.90773 18.8183 2.14499 24.8242L2.10459 24.9038C1.8246 25.5454 1.5038 26.2258 1.18341 26.9458C0.983414 27.3866 0.783418 27.867 0.583422 28.3873C0.0626319 29.8685 -0.0977726 31.2701 0.103023 32.7121C0.543415 35.7152 2.54497 38.2368 5.30812 39.3587C6.3493 39.7995 7.43048 39.9995 8.55126 39.9995C8.87165 39.9995 9.27165 39.9595 9.59245 39.9191C10.914 39.7591 12.2752 39.3191 13.5968 38.5583C15.2383 37.6372 16.7999 36.3164 18.5615 34.3944C20.323 36.3164 21.9246 37.6372 23.5262 38.5583C24.8481 39.3191 26.2089 39.7591 27.5301 39.9191C27.8505 39.9599 28.2513 39.9995 28.5717 39.9995C29.6928 39.9995 30.8136 39.7995 31.8144 39.3587C34.6175 38.2368 36.5791 35.6752 37.0199 32.7121C37.3379 31.3109 37.1779 29.9101 36.6575 28.4282ZM18.6003 30.5101C16.4379 27.7874 15.0363 25.225 14.5563 23.0635C14.3563 22.1423 14.3159 21.3415 14.4363 20.6207C14.5159 19.9799 14.7567 19.4191 15.0771 18.9387C15.8379 17.8584 17.1191 17.1772 18.6007 17.1772C20.0826 17.1772 21.4038 17.818 22.1246 18.9387C22.445 19.4191 22.685 19.9803 22.7658 20.6207C22.8854 21.3419 22.8454 22.1823 22.6454 23.0635C22.1634 25.185 20.7618 27.7478 18.6003 30.5101ZM34.5751 32.3921C34.2951 34.474 32.8936 36.2764 30.932 37.0772C29.9712 37.4772 28.9297 37.5976 27.8893 37.4772C26.8885 37.3568 25.8869 37.0364 24.8465 36.4364C23.405 35.6348 21.9638 34.3944 20.2818 32.5521C22.9242 29.3093 24.5257 26.3458 25.1265 23.7038C25.4069 22.4623 25.4473 21.3415 25.3265 20.2999C25.1669 19.2991 24.8061 18.3779 24.2457 17.5772C23.0038 15.7748 20.9214 14.7344 18.5999 14.7344C16.2783 14.7344 14.1959 15.8156 12.9548 17.5772C12.3944 18.3779 12.0336 19.2991 11.8736 20.2999C11.7136 21.3415 11.7532 22.5023 12.0736 23.7038C12.674 26.3458 14.3156 29.3489 16.9179 32.5921C15.2763 34.434 13.7948 35.6756 12.3532 36.4764C11.312 37.0772 10.3116 37.3976 9.31085 37.5172C8.23007 37.6376 7.18849 37.4772 6.26771 37.1172C4.30615 36.3164 2.90457 34.514 2.62458 32.4321C2.50458 31.4313 2.58418 30.4305 2.98497 29.3093C3.10457 28.9085 3.30536 28.5086 3.50536 28.0282C3.78575 27.3874 4.10535 26.7062 4.42614 26.0258L4.46655 25.9462C7.22889 19.9799 10.1916 13.894 13.2748 7.96855L13.3948 7.72776C13.7156 7.12777 14.036 6.48699 14.356 5.8862C14.6763 5.24541 15.0363 4.64462 15.4771 4.12383C16.3179 3.16385 17.4387 2.64266 18.6803 2.64266C19.9218 2.64266 21.0426 3.16385 21.8834 4.12383C22.3242 4.64582 22.6842 5.24661 23.0046 5.8862C23.3254 6.48699 23.6458 7.12777 23.9654 7.72776L24.0857 7.96855C27.1219 13.9187 30.0453 19.9256 32.8544 25.9862V26.0262C33.1752 26.6678 33.4552 27.3878 33.7756 28.0294C33.9756 28.5089 34.1759 28.9089 34.2959 29.3097C34.6155 30.3497 34.7355 31.3513 34.5751 32.3921Z" fill="#FF5A5F"/>
</g>
<defs>
<clipPath id="clip0_1_136">
<rect width="128.205" height="40" fill="white"/>
</clipPath>
</defs>
</svg>
