<svg width="120" height="36" viewBox="0 0 120 36" fill="none" xmlns="http://www.w3.org/2000/svg">
<path fill-rule="evenodd" clip-rule="evenodd" d="M74.6019 28.1539C67.6789 33.2727 57.6091 36 48.9238 36C36.7561 36 25.8472 31.5105 17.5395 24.042C16.9102 23.4546 17.4556 22.6574 18.2528 23.1189C27.1898 28.3217 38.2246 31.4266 49.6371 31.4266C57.3153 31.4266 65.7908 29.8322 73.5949 26.5175C74.7697 26.056 75.7347 27.3147 74.6019 28.1539Z" fill="#FF9900"/>
<path fill-rule="evenodd" clip-rule="evenodd" d="M77.4962 24.8393C76.6151 23.7064 71.6221 24.2938 69.3984 24.5875C68.727 24.6714 68.6012 24.084 69.2305 23.6644C73.2165 20.8533 79.7199 21.6924 80.4752 22.6155C81.2304 23.5386 80.2654 30.084 76.5312 33.1888C75.9437 33.6504 75.3983 33.3986 75.65 32.7692C76.4892 30.6714 78.3773 26.0141 77.4962 24.8393Z" fill="#FF9900"/>
<path fill-rule="evenodd" clip-rule="evenodd" d="M69.525 3.94426V1.21701C69.525 0.797436 69.8187 0.545688 70.1963 0.545688H82.364C82.7417 0.545688 83.0773 0.839394 83.0773 1.21701V3.52468C83.0773 3.9023 82.7417 4.40579 82.1542 5.24494L75.8606 14.2239C78.2102 14.1819 80.6857 14.5176 82.7836 15.6924C83.2451 15.9441 83.371 16.3637 83.413 16.7413V19.6364C83.413 20.056 82.9934 20.5175 82.5319 20.2658C78.7976 18.2938 73.8047 18.084 69.6928 20.3077C69.2733 20.5175 68.8117 20.0979 68.8117 19.6784V16.9092C68.8117 16.4896 68.8117 15.7343 69.2733 15.063L76.5739 4.61558H70.2383C69.8607 4.61558 69.525 4.32187 69.525 3.94426ZM25.1758 20.8532H21.4836C21.1479 20.8112 20.8542 20.5595 20.8122 20.2238V1.25897C20.8122 0.881354 21.1479 0.587648 21.5255 0.587648H24.966C25.3437 0.587648 25.5954 0.881351 25.6374 1.21701V3.69251H25.7213C26.6024 1.30092 28.3226 0.168072 30.5884 0.168072C32.896 0.168072 34.3645 1.30092 35.3715 3.69251C36.2526 1.30092 38.3086 0.168072 40.4903 0.168072C42.0428 0.168072 43.7211 0.797436 44.77 2.26595C45.9448 3.86034 45.6931 6.16801 45.6931 8.22394V20.2238C45.6931 20.6014 45.3574 20.8951 44.9798 20.8951H41.3295C40.9519 20.8532 40.6582 20.5595 40.6582 20.2238V10.154C40.6582 9.35678 40.7421 7.34282 40.5743 6.58758C40.2806 5.32885 39.4834 4.95124 38.3925 4.95124C37.5114 4.95124 36.5463 5.53865 36.1687 6.50367C35.7911 7.4687 35.8331 9.06308 35.8331 10.154V20.2238C35.8331 20.6014 35.4974 20.8951 35.1198 20.8951H31.4275C31.0499 20.8532 30.7562 20.5595 30.7562 20.2238V10.154C30.7562 8.0561 31.0918 4.90928 28.4905 4.90928C25.8471 4.90928 25.9311 7.93022 25.9311 10.154V20.2238C25.8891 20.5595 25.5954 20.8532 25.1758 20.8532ZM93.5667 0.168072C99.0632 0.168072 102.042 4.86732 102.042 10.8673C102.042 16.6574 98.7695 21.2727 93.5667 21.2727C88.1961 21.2727 85.2591 16.5735 85.2591 10.6994C85.2172 4.78341 88.1961 0.168072 93.5667 0.168072ZM93.5667 4.07012C90.8395 4.07012 90.6716 7.80436 90.6716 10.112C90.6716 12.4197 90.6297 17.3707 93.5248 17.3707C96.3779 17.3707 96.5457 13.3847 96.5457 10.9512C96.5457 9.35679 96.4618 7.42674 96.0003 5.91627C95.5807 4.57363 94.7415 4.07012 93.5667 4.07012ZM109.133 20.8532H105.441C105.063 20.8112 104.769 20.5175 104.769 20.1819V1.17505C104.811 0.839391 105.105 0.545688 105.483 0.545688H108.923C109.259 0.545688 109.511 0.797441 109.595 1.09114V3.98622H109.678C110.727 1.38485 112.154 0.168072 114.713 0.168072C116.35 0.168072 117.986 0.755473 119.035 2.39182C120 3.90229 120 6.46171 120 8.30784V20.2658C119.958 20.6014 119.664 20.8532 119.287 20.8532H115.594C115.259 20.8112 114.965 20.5595 114.923 20.2658V9.94419C114.923 7.84631 115.175 4.82537 112.615 4.82537C111.734 4.82537 110.895 5.41278 110.476 6.33584C109.972 7.51066 109.888 8.6435 109.888 9.94419V20.1819C109.846 20.5595 109.511 20.8532 109.133 20.8532ZM59.8328 11.7903C59.8328 13.2169 59.8748 14.4337 59.1615 15.7343C58.5741 16.7833 57.651 17.4126 56.6021 17.4126C55.1755 17.4126 54.3364 16.3218 54.3364 14.7274C54.3364 11.5805 57.1475 10.9931 59.8328 10.9931V11.7903ZM63.567 20.8112C63.3153 21.021 62.9796 21.063 62.6859 20.8951C61.4692 19.8881 61.2174 19.3847 60.5461 18.4196C58.5321 20.4755 57.0636 21.1049 54.4622 21.1049C51.3574 21.1049 48.9238 19.1749 48.9238 15.3567C48.9238 12.3358 50.5602 10.3218 52.8678 9.31482C54.8818 8.43371 57.693 8.26589 59.8328 8.01415V7.55261C59.8328 6.6715 59.9167 5.62256 59.3713 4.86733C58.9097 4.19601 58.0706 3.9023 57.3154 3.9023C55.8888 3.9023 54.6301 4.61558 54.3364 6.12606C54.2524 6.46172 54.0427 6.79737 53.707 6.79737L50.1406 6.41975C49.8469 6.33584 49.5112 6.12605 49.5952 5.66452C50.4343 1.30093 54.3364 0.000244141 57.8608 0.000244141C59.665 0.000244141 62.0146 0.461775 63.4412 1.84638C65.2453 3.52468 65.0775 5.7904 65.0775 8.22394V13.9721C65.0775 15.6924 65.7908 16.4476 66.4621 17.4126C66.7139 17.7483 66.7558 18.1679 66.4621 18.3777C65.6649 19.007 64.3223 20.1819 63.567 20.8112ZM11.3718 11.7903C11.3718 13.2169 11.4137 14.4337 10.7005 15.7343C10.113 16.7833 9.18997 17.4126 8.14103 17.4126C6.71448 17.4126 5.87533 16.3218 5.87533 14.7274C5.87533 11.5805 8.68649 10.9931 11.3718 10.9931V11.7903ZM15.064 20.8112C14.8123 21.021 14.4766 21.063 14.1829 20.8951C12.9662 19.8881 12.7144 19.3847 12.0431 18.4196C10.0291 20.4755 8.56061 21.1049 5.95924 21.1049C2.85438 21.1049 0.420837 19.1749 0.420837 15.3567C0.420837 12.3358 2.05718 10.3218 4.36485 9.31482C6.37881 8.43371 9.18998 8.26589 11.3298 8.01415V7.55261C11.3298 6.6715 11.4137 5.62256 10.8683 4.86733C10.4067 4.19601 9.5676 3.9023 8.81236 3.9023C7.3858 3.9023 6.12707 4.61558 5.83337 6.12606C5.74945 6.46172 5.53966 6.79737 5.204 6.79737L1.63761 6.41975C1.3439 6.33584 1.00825 6.12605 1.09216 5.66452C1.93131 1.30093 5.83337 0.000244141 9.35781 0.000244141C11.162 0.000244141 13.5116 0.461775 14.9382 1.84638C16.7423 3.52468 16.5745 5.7904 16.5745 8.22394V13.9721C16.5745 15.6924 17.2878 16.4476 17.9591 17.4126C18.2109 17.7483 18.2528 18.1679 17.9591 18.3777C17.1619 19.007 15.8193 20.1819 15.064 20.8112Z" fill="black"/>
</svg>
