<svg width="145" height="28" viewBox="0 0 145 28" fill="none" xmlns="http://www.w3.org/2000/svg">
<g clip-path="url(#clip0_1_108)">
<path d="M11.3287 4.41818C9.63281 4.41818 9.12403 5.16439 9.12403 6.82639V9.57378H13.6691L13.2282 14.051H9.12403V27.5845H3.66317V14.051H-1.52588e-05V9.6077H3.66317V6.92815C3.66317 2.38308 5.49477 0.00878906 10.5486 0.00878906C11.6001 0.00878906 12.6855 0.0766259 13.7369 0.2123V4.41818" fill="#1A5098"/>
<path d="M14.0421 18.0196C14.0421 12.9997 16.4164 9.20081 21.4364 9.20081C24.1498 9.20081 25.8118 10.5915 26.6259 12.3552V9.60783H31.8493V27.6185H26.592V24.905C25.8458 26.6349 24.1159 27.9916 21.4024 27.9916C16.4164 27.9916 14.0082 24.2267 14.0082 19.1728L14.0421 18.0196ZM19.503 19.2407C19.503 21.9202 20.4866 23.7179 23.0305 23.7179C25.2692 23.7179 26.3885 22.0898 26.3885 19.512V17.6804C26.3885 15.1026 25.2352 13.4745 23.0305 13.4745C20.4866 13.4745 19.503 15.2383 19.503 17.9518V19.2407Z" fill="#1A5098"/>
<path d="M43.1781 9.20081C45.281 9.20081 47.3161 9.64175 48.4015 10.4219L47.1805 14.2886C46.0612 13.7459 44.8062 13.4745 43.5512 13.4745C40.6003 13.4745 39.3114 15.1704 39.3114 18.0874V19.1389C39.3114 22.0559 40.6003 23.7518 43.5512 23.7518C44.8062 23.7518 46.0612 23.4465 47.1805 22.9038L48.4015 26.7705C47.3161 27.5168 45.315 27.9916 43.1781 27.9916C36.7675 27.9916 33.8845 24.5659 33.8845 19.0371V18.1892C33.8845 12.6605 36.7675 9.20081 43.1781 9.20081Z" fill="#1A5098"/>
<path d="M49.1141 19.2746V17.6804C49.1141 12.5587 52.0311 9.20081 57.9668 9.20081C63.5633 9.20081 66.0394 12.5926 66.0394 17.6126V20.4956H54.575C54.6767 22.9717 55.796 24.0571 58.8148 24.0571C60.782 24.0571 62.7493 23.6839 64.6148 22.9717L65.5984 26.7027C64.1739 27.4489 61.223 28.0255 58.6113 28.0255C51.6919 27.9916 49.1141 24.5658 49.1141 19.2746ZM54.575 16.9003H61.1551V16.4593C61.1551 14.4921 60.375 12.9318 57.9668 12.9318C55.5247 12.9318 54.575 14.4921 54.575 16.9003Z" fill="#1A5098"/>
<path d="M86.2543 19.1726C86.2543 24.1925 83.8461 27.9914 78.8262 27.9914C76.1127 27.9914 74.2133 26.6347 73.4671 24.9048V27.6183H68.3115V0.551396L73.7724 0.0765381V12.1176C74.5525 10.5234 76.3162 9.23451 78.8601 9.23451C83.8461 9.23451 86.2882 12.9995 86.2882 18.0533L86.2543 19.1726ZM80.7935 17.9176C80.7935 15.3737 79.8098 13.4743 77.1981 13.4743C74.9595 13.4743 73.7724 15.0685 73.7724 17.6463V19.5457C73.7724 22.1235 74.9934 23.7177 77.1981 23.7177C79.8098 23.7177 80.7935 21.8182 80.7935 19.2744V17.9176Z" fill="#1A5098"/>
<path d="M88.0522 19.0371V18.1213C88.0522 12.9318 91.0031 9.20081 97.0067 9.20081C103.01 9.20081 105.961 12.9318 105.961 18.1213V19.0371C105.961 24.2267 103.01 27.9577 97.0067 27.9577C91.0031 27.9577 88.0522 24.2606 88.0522 19.0371ZM100.534 17.7482C100.534 15.374 99.5506 13.4745 97.0067 13.4745C94.4628 13.4745 93.4791 15.374 93.4791 17.7482V19.4442C93.4791 21.8185 94.4628 23.7179 97.0067 23.7179C99.5506 23.7179 100.534 21.8185 100.534 19.4442V17.7482Z" fill="#1A5098"/>
<path d="M107.827 19.0371V18.1213C107.827 12.9318 110.777 9.20081 116.781 9.20081C122.785 9.20081 125.735 12.9318 125.735 18.1213V19.0371C125.735 24.2267 122.785 27.9577 116.781 27.9577C110.777 27.9577 107.827 24.2606 107.827 19.0371ZM120.309 17.7482C120.309 15.374 119.325 13.4745 116.781 13.4745C114.237 13.4745 113.253 15.374 113.253 17.7482V19.4442C113.253 21.8185 114.237 23.7179 116.781 23.7179C119.325 23.7179 120.309 21.8185 120.309 19.4442V17.7482Z" fill="#1A5098"/>
<path d="M133.231 18.189L138.624 9.57368H144.39L138.76 18.4942L144.628 27.6183H138.828L133.231 18.7995V27.6183H127.804V0.551379L133.231 0.0426025" fill="#1A5098"/>
</g>
<defs>
<clipPath id="clip0_1_108">
<rect width="144.628" height="28" fill="white"/>
</clipPath>
</defs>
</svg>
