<svg width="120" height="40" viewBox="0 0 120 40" fill="none" xmlns="http://www.w3.org/2000/svg">
<path d="M14.7791 0H15.8462C19.5509 0.0805369 23.1952 1.57047 25.8127 4.20805C24.8462 5.19463 23.8596 6.14094 22.9133 7.12752C21.4435 5.79866 19.6717 4.77181 17.7388 4.4094C14.8798 3.80537 11.7992 4.34899 9.40327 5.97987C6.78582 7.69127 5.01401 10.5906 4.63146 13.6913C4.20864 16.7517 5.07441 19.9732 7.0677 22.349C8.98045 24.6644 11.8999 26.1141 14.92 26.2148C17.7388 26.3758 20.6784 25.5101 22.7321 23.5369C24.3429 22.1476 25.0878 20.0336 25.3294 17.9799C21.9872 17.9799 18.6449 18 15.3026 17.9799V13.8322H29.3764C30.1013 18.2819 29.0543 23.2953 25.6717 26.4765C23.4167 28.7315 20.2959 30.0604 17.1147 30.3221C14.0341 30.6242 10.8529 30.0403 8.11468 28.5503C4.8328 26.7987 2.21535 23.8389 0.92676 20.3557C-0.281293 17.1544 -0.301428 13.5302 0.826089 10.3087C1.85294 7.36913 3.82609 4.77181 6.363 2.95973C8.79924 1.16779 11.759 0.181208 14.7791 0Z" fill="#4285F4"/>
<path d="M95.5173 1.04712H99.826V29.7988C98.3965 29.7988 96.9469 29.8189 95.5173 29.7787C95.5375 20.2149 95.5173 10.631 95.5173 1.04712Z" fill="#34A853"/>
<path d="M38.96 11.0136C41.6177 10.5102 44.4969 11.074 46.6916 12.6646C48.6848 14.074 50.0741 16.2887 50.4969 18.7048C51.0406 21.5035 50.356 24.5639 48.5439 26.7787C46.5909 29.2552 43.3895 30.584 40.2687 30.3827C37.4097 30.2216 34.6311 28.7921 32.9399 26.4565C31.0271 23.8793 30.564 20.3357 31.611 17.3156C32.658 14.074 35.6177 11.5975 38.96 11.0136ZM39.564 14.8391C38.4768 15.121 37.4701 15.7451 36.7452 16.631C34.7922 18.9666 34.913 22.772 37.0674 24.9465C38.2956 26.1948 40.1479 26.7787 41.8593 26.4364C43.4499 26.1545 44.8392 25.0874 45.6043 23.678C46.9332 21.282 46.5506 17.98 44.5171 16.1075C43.2083 14.8995 41.2956 14.3961 39.564 14.8391Z" fill="#EA4335"/>
<path d="M60.3023 11.0135C63.3426 10.4296 66.6647 11.2752 68.9399 13.4094C72.6446 16.7316 73.0473 22.9531 69.8862 26.7786C67.9734 29.1947 64.8728 30.5235 61.8124 30.3826C58.8929 30.3021 56.0137 28.8524 54.2821 26.4564C52.3291 23.8188 51.9063 20.1947 53.0137 17.1141C54.1211 13.9732 57.0204 11.5772 60.3023 11.0135ZM60.9063 14.839C59.8191 15.1208 58.8123 15.745 58.0875 16.6108C56.1546 18.9061 56.2352 22.651 58.309 24.8457C59.5372 26.1544 61.4499 26.7987 63.2218 26.4363C64.7922 26.1343 66.2016 25.0873 66.9667 23.6779C68.2755 21.2618 67.8929 17.9598 65.8392 16.0873C64.5305 14.8792 62.6177 14.396 60.9063 14.839Z" fill="#FBBC05"/>
<path d="M78.403 12.1814C80.7184 10.7317 83.799 10.329 86.2956 11.5774C87.0808 11.9196 87.7251 12.5035 88.3493 13.0874C88.3694 12.5438 88.3493 11.98 88.3694 11.4163C89.7184 11.4364 91.0674 11.4163 92.4365 11.4364V29.1948C92.4164 31.8727 91.7318 34.7116 89.799 36.6646C87.6849 38.819 84.4433 39.4834 81.5238 39.0405C78.403 38.5774 75.6849 36.3022 74.4768 33.423C75.6849 32.8391 76.9533 32.376 78.2016 31.8324C78.9063 33.4834 80.3359 34.8928 82.1278 35.215C83.9198 35.5371 85.9936 35.0942 87.1614 33.6042C88.4097 32.074 88.4097 29.9801 88.3493 28.1076C87.4231 29.0136 86.356 29.819 85.0674 30.121C82.2688 30.9062 79.1882 29.9398 77.0339 28.0472C74.8594 26.1546 73.5708 23.2351 73.6916 20.3358C73.752 17.0539 75.6043 13.8928 78.403 12.1814ZM82.5708 14.7586C81.3426 14.9599 80.1949 15.6445 79.4097 16.5908C77.5171 18.8458 77.5171 22.4499 79.4298 24.6646C80.5171 25.9733 82.2688 26.6982 83.96 26.517C85.5506 26.3559 87.0204 25.3492 87.8057 23.9599C89.1345 21.6042 88.9131 18.4029 87.1211 16.3492C86.0137 15.0807 84.2419 14.4566 82.5708 14.7586Z" fill="#4285F4"/>
<path d="M105.001 13.2081C107.417 10.9531 111.142 10.188 114.242 11.3759C117.182 12.4833 119.055 15.2819 120.001 18.1611C115.632 19.9732 111.283 21.7652 106.914 23.5772C107.518 24.7249 108.444 25.7719 109.692 26.1947C111.444 26.8189 113.538 26.5974 115.008 25.4296C115.591 24.9866 116.055 24.4027 116.498 23.839C117.605 24.584 118.712 25.3088 119.82 26.0538C118.249 28.4095 115.612 30.0605 112.773 30.3222C109.632 30.7048 106.289 29.4967 104.256 27.0403C100.914 23.1746 101.236 16.6913 105.001 13.2081ZM107.155 16.9329C106.471 17.9195 106.189 19.1276 106.209 20.3155C109.128 19.1074 112.048 17.8994 114.967 16.6712C114.484 15.5437 113.316 14.8591 112.128 14.6779C110.216 14.3356 108.222 15.3625 107.155 16.9329Z" fill="#EA4335"/>
</svg>
