<svg width="140" height="40" viewBox="0 0 140 40" fill="none" xmlns="http://www.w3.org/2000/svg">
<path d="M15.8042 1.26103C16.0839 1.26103 16.2238 1.40089 16.5035 1.54075C14.8252 2.24006 13.1469 4.05824 12.3077 7.97432L9.23077 8.81348C10.2098 6.01628 12.1678 1.26103 15.8042 1.26103ZM17.3427 2.65964C17.6224 3.4988 17.9021 4.47782 17.9021 6.01628C17.9021 6.15614 17.9021 6.15614 17.9021 6.296L13.8462 7.41488C14.6853 4.47782 16.0839 3.21908 17.3427 2.65964ZM20.979 5.17712L19.1608 5.73656C19.1608 5.5967 19.1608 5.45684 19.1608 5.31698C19.1608 4.05824 19.021 3.07922 18.7413 2.24006C19.7203 2.51978 20.5594 3.77852 20.979 5.17712ZM30.0699 7.41488C30.0699 7.27502 29.9301 7.13516 29.7902 7.13516C29.5105 7.13516 26.5734 6.85544 26.5734 6.85544C26.5734 6.85544 24.4755 4.75754 24.1958 4.61768C23.9161 4.33796 23.4965 4.47782 23.3566 4.47782C23.3566 4.47782 22.9371 4.61768 22.2378 4.8974C21.5385 2.93936 20.2797 1.12117 18.1818 1.12117H18.042C17.4825 0.282013 16.6434 0.00229269 15.9441 0.00229269C10.9091 -0.137567 8.53147 6.15614 7.69231 9.37292C6.57343 9.65264 5.45455 10.0722 4.1958 10.4918C3.07692 10.7715 3.07692 10.9114 2.93706 11.8904C2.7972 12.5897 0 34.6876 0 34.6876L22.2378 38.8834L34.2657 36.2261C34.2657 36.2261 30.0699 7.6946 30.0699 7.41488Z" fill="#8DB849"/>
<path d="M29.6504 7.13525C29.5106 7.13525 26.5735 6.85553 26.5735 6.85553C26.5735 6.85553 24.4756 4.75763 24.1959 4.61777C24.056 4.47791 24.056 4.47791 23.9161 4.47791L22.2378 38.8835L34.2658 36.2262C34.2658 36.2262 30.07 7.69469 30.07 7.41497C30.07 7.27511 29.7903 7.13525 29.6504 7.13525Z" fill="#5A863E"/>
<path d="M18.1819 13.8484L16.6434 18.324C16.6434 18.324 15.3847 17.6247 13.7063 17.6247C11.3287 17.6247 11.1889 19.0233 11.1889 19.4428C11.1889 21.4009 16.5035 22.24 16.5035 26.9953C16.5035 30.7715 14.1259 33.1491 10.9091 33.1491C7.13291 33.1491 5.17487 30.7715 5.17487 30.7715L6.15389 27.4149C6.15389 27.4149 8.11193 29.0932 9.79025 29.0932C10.9091 29.0932 11.3287 28.254 11.3287 27.5547C11.3287 24.8974 6.99305 24.7575 6.99305 20.4219C6.99305 16.7855 9.65039 13.289 14.8252 13.289C17.2028 13.1491 18.1819 13.8484 18.1819 13.8484Z" fill="#FFFFFE"/>
<path d="M48.3916 22.1003C47.1329 21.401 46.5734 20.8415 46.5734 20.1422C46.5734 19.1632 47.4126 18.6038 48.8112 18.6038C50.3497 18.6038 51.7483 19.3031 51.7483 19.3031L52.8671 15.9464C52.8671 15.9464 51.8881 15.1073 48.951 15.1073C44.7552 15.1073 41.958 17.4849 41.958 20.8415C41.958 22.7996 43.3566 24.1982 45.035 25.1772C46.4336 26.0163 46.993 26.5758 46.993 27.4149C46.993 28.2541 46.2937 29.0933 44.8951 29.0933C42.9371 29.0933 40.979 28.1143 40.979 28.1143L39.8601 31.4709C39.8601 31.4709 41.5385 32.5898 44.4755 32.5898C48.6713 32.5898 51.7483 30.4919 51.7483 26.7156C51.7483 24.6177 50.2098 23.0793 48.3916 22.1003ZM65.3147 14.9674C63.2168 14.9674 61.5385 15.9464 60.2797 17.4849L62.0979 7.97439H57.3427L52.7273 32.1702H57.4825L59.021 23.9184C59.5804 20.8415 61.2587 18.8835 62.7972 18.8835C63.9161 18.8835 64.3357 19.5828 64.3357 20.7017C64.3357 21.401 64.3357 22.1003 64.1958 22.7996L62.3776 32.3101H67.1329L68.951 22.5198C69.0909 21.5408 69.2308 20.2821 69.2308 19.4429C69.2308 16.6457 67.8322 14.9674 65.3147 14.9674ZM77.4825 28.8136C75.8042 28.8136 75.2448 27.4149 75.2448 25.7366C75.2448 23.0793 76.6434 18.6038 79.1608 18.6038C80.8392 18.6038 81.3986 20.0024 81.3986 21.401C81.3986 24.4779 80 28.8136 77.4825 28.8136ZM79.8601 14.9674C74.1259 14.9674 70.3496 20.1422 70.3496 25.8765C70.3496 29.5128 72.5874 32.4499 76.9231 32.4499C82.5175 32.4499 86.2937 27.4149 86.2937 21.5408C86.2937 18.1842 84.3357 14.9674 79.8601 14.9674ZM93.8462 28.9534C92.5874 28.9534 91.8881 28.2541 91.8881 28.2541L92.7273 23.7786C93.2867 20.8415 94.8252 18.8835 96.5035 18.8835C97.9021 18.8835 98.4615 20.2821 98.4615 21.5408C98.3217 24.6177 96.5035 28.9534 93.8462 28.9534ZM98.4615 14.9674C95.2448 14.9674 93.4266 17.7646 93.4266 17.7646L93.7063 15.2471H89.5105C89.3706 16.9254 88.951 19.5828 88.5315 21.5408L85.1748 38.8835H89.9301L91.1888 31.8905H91.3287C91.3287 31.8905 92.3077 32.4499 94.1259 32.4499C99.7203 32.4499 103.357 26.7156 103.357 20.9814C103.357 17.9045 101.958 14.9674 98.4615 14.9674ZM110.07 8.25411C108.531 8.25411 107.413 9.51285 107.413 11.0513C107.413 12.4499 108.252 13.4289 109.65 13.4289C111.189 13.4289 112.448 12.4499 112.448 10.6317C112.448 9.23313 111.469 8.25411 110.07 8.25411ZM103.497 32.1702H108.252L111.469 15.387H106.713L103.497 32.1702ZM123.497 15.387H120.14L120.28 14.5478C120.559 12.8695 121.538 11.4709 123.077 11.4709C123.916 11.4709 124.615 11.7506 124.615 11.7506L125.594 7.97439C125.594 7.97439 124.755 7.55481 123.077 7.55481C121.399 7.55481 119.72 7.97439 118.462 9.09327C116.783 10.4919 116.084 12.4499 115.664 14.408L115.524 15.2471H113.287L112.587 18.8835H114.825L112.308 32.1702H117.063L119.58 18.8835H122.797L123.497 15.387ZM134.825 15.387C134.825 15.387 131.888 22.7996 130.49 26.8555C130.35 25.5968 129.371 15.387 129.371 15.387H124.336L127.133 30.7716C127.133 31.0513 127.133 31.331 126.993 31.6108C126.434 32.7296 125.455 33.7087 124.476 34.408C123.636 35.1073 122.517 35.5268 121.818 35.8066L123.077 39.8625C124.056 39.7226 126.014 38.8835 127.692 37.345C129.79 35.387 131.888 32.1702 133.846 27.9744L139.58 15.5268L134.825 15.387Z" fill="#1A1919"/>
</svg>
