<svg width="143" height="36" viewBox="0 0 143 36" fill="none" xmlns="http://www.w3.org/2000/svg">
<path fill-rule="evenodd" clip-rule="evenodd" d="M45.5152 28.3458L47.2907 24.22C49.2085 25.6541 51.7637 26.3996 54.2847 26.3996C56.1456 26.3996 57.3236 25.6825 57.3236 24.5956C57.2952 21.5567 46.1753 23.9355 46.09 16.3155C46.0615 12.4457 49.4988 9.46375 54.3701 9.46375C57.2667 9.46375 60.1576 10.1808 62.2234 11.814L60.5617 16.0252C58.6723 14.8188 56.322 13.9595 54.0855 13.9595C52.5661 13.9595 51.5645 14.6765 51.5645 15.5927C51.593 18.5747 62.7982 16.9415 62.912 24.22C62.912 28.1751 59.5601 30.9579 54.7457 30.9579C51.2174 30.9522 47.9793 30.1214 45.5152 28.3458ZM113.697 22.729C112.809 24.2769 111.147 25.3354 109.224 25.3354C106.384 25.3354 104.096 23.042 104.096 20.208C104.096 17.374 106.39 15.0806 109.224 15.0806C111.142 15.0806 112.809 16.1391 113.697 17.687L118.596 14.9668C116.764 11.7002 113.236 9.46375 109.224 9.46375C103.288 9.46375 98.4738 14.2782 98.4738 20.2137C98.4738 26.1492 103.288 30.9636 109.224 30.9636C113.264 30.9636 116.764 28.7556 118.596 25.4606L113.697 22.729ZM65.3761 0.546265H71.5108V30.5539H65.3761V0.546265ZM121.004 0.546265V30.5539H127.138V21.551L134.417 30.5539H142.27L133.011 19.8608L141.582 9.88487H134.07L127.133 18.165V0.546265H121.004Z" fill="black"/>
<path d="M89.7379 22.7857C88.8502 24.2483 87.0177 25.3352 84.952 25.3352C82.1122 25.3352 79.8245 23.0418 79.8245 20.2078C79.8245 17.3738 82.1179 15.0804 84.952 15.0804C87.0177 15.0804 88.8502 16.2242 89.7379 17.7152V22.7857ZM89.7379 9.89039V12.326C88.7364 10.6359 86.2438 9.45789 83.6317 9.45789C78.2425 9.45789 74.0028 14.2154 74.0028 20.1794C74.0028 26.1433 78.2425 30.9577 83.6317 30.9577C86.2381 30.9577 88.7307 29.7854 89.7379 28.0896V30.5252H95.8727V9.89039H89.7379Z" fill="black"/>
<path fill-rule="evenodd" clip-rule="evenodd" d="M7.59727 22.7575C7.59727 24.8517 5.9071 26.5419 3.81289 26.5419C1.71867 26.5419 0.0285034 24.846 0.0285034 22.7575C0.0285034 20.669 1.71867 18.9731 3.81289 18.9731H7.59727V22.7575ZM9.48661 22.7575C9.48661 20.6633 11.1768 18.9731 13.271 18.9731C15.3652 18.9731 17.0554 20.6633 17.0554 22.7575V32.2156C17.0554 34.3098 15.3652 36 13.271 36C11.1768 36 9.48661 34.3098 9.48661 32.2156V22.7575Z" fill="#E01E5A"/>
<path fill-rule="evenodd" clip-rule="evenodd" d="M13.2709 7.56876C11.1767 7.56876 9.48656 5.8786 9.48656 3.78438C9.48656 1.69017 11.1767 0 13.2709 0C15.3652 0 17.0553 1.69017 17.0553 3.78438V7.56876H13.2709ZM13.2709 9.48656C15.3652 9.48656 17.0553 11.1767 17.0553 13.2709C17.0553 15.3652 15.3652 17.0553 13.2709 17.0553H3.78438C1.69017 17.0553 0 15.3595 0 13.2709C0 11.1824 1.69017 9.48656 3.78438 9.48656H13.2709Z" fill="#36C5F0"/>
<path fill-rule="evenodd" clip-rule="evenodd" d="M28.4309 13.2709C28.4309 11.1767 30.1211 9.48656 32.2153 9.48656C34.3095 9.48656 35.9997 11.1767 35.9997 13.2709C35.9997 15.3652 34.3095 17.0553 32.2153 17.0553H28.4309V13.2709ZM26.5415 13.2709C26.5415 15.3652 24.8514 17.0553 22.7571 17.0553C20.6629 17.0553 18.9727 15.3652 18.9727 13.2709V3.78438C18.9727 1.69017 20.6629 0 22.7571 0C24.8514 0 26.5415 1.69017 26.5415 3.78438V13.2709Z" fill="#2EB67D"/>
<path fill-rule="evenodd" clip-rule="evenodd" d="M22.7571 28.4312C24.8514 28.4312 26.5415 30.1214 26.5415 32.2156C26.5415 34.3098 24.8514 36 22.7571 36C20.6629 36 18.9727 34.3098 18.9727 32.2156V28.4312H22.7571ZM22.7571 26.5419C20.6629 26.5419 18.9727 24.8517 18.9727 22.7575C18.9727 20.6633 20.6629 18.9731 22.7571 18.9731H32.2437C34.338 18.9731 36.0281 20.6633 36.0281 22.7575C36.0281 24.8517 34.338 26.5419 32.2437 26.5419H22.7571Z" fill="#ECB22E"/>
</svg>
