<svg width="114" height="26" viewBox="0 0 114 26" fill="none" xmlns="http://www.w3.org/2000/svg">
<path fill-rule="evenodd" clip-rule="evenodd" d="M92.4427 7.65132C92.8767 8.40011 93.0187 9.25205 93.0656 10.2098L93.1272 11.4864V20.4129L93.1902 21.6908C93.3161 23.7778 94.8552 25.3209 96.9582 25.4522L98.2294 25.5151V11.4864L98.2924 10.2098C98.3446 9.26276 98.4853 8.39476 98.926 7.64061C99.375 6.86708 100.02 6.22531 100.795 5.77973C101.571 5.33415 102.45 5.10044 103.344 5.10207C104.239 5.1037 105.117 5.34061 105.891 5.78901C106.665 6.23741 107.307 6.88153 107.753 7.65668C108.187 8.40547 108.323 9.27348 108.375 10.2098L108.438 11.4823V20.4129L108.501 21.6908C108.632 23.7885 110.159 25.3316 112.269 25.4522L113.54 25.5151V10.2098C113.54 7.5034 112.465 4.90779 110.552 2.9937C108.639 1.07961 106.043 0.00374759 103.337 0.00268208C101.888 0.0011545 100.456 0.308768 99.1361 0.904972C97.816 1.50118 96.6383 2.37224 95.6817 3.45998C94.7246 2.37267 93.5469 1.50182 92.2268 0.905435C90.9068 0.309054 89.4748 0.000844468 88.0263 0.00134258C85.9072 0.00134258 83.9408 0.644311 82.312 1.75477C81.318 0.64565 79.0944 0.00134258 77.8179 0.00134258V25.5151L79.0944 25.4522C81.2296 25.3115 82.7728 23.8099 82.8558 21.6908L82.9241 20.4129V11.4864L82.9871 10.2098C83.0407 9.24669 83.1746 8.40011 83.6099 7.64597C84.0594 6.87292 84.7038 6.2313 85.4787 5.78517C86.2537 5.33905 87.1321 5.10402 88.0263 5.10356C88.9212 5.10376 89.8003 5.33925 90.5755 5.78643C91.3506 6.2336 91.9946 6.87674 92.4427 7.65132ZM5.10222 25.4535L6.37878 25.5151H25.5138L25.4508 24.2426C25.278 22.1449 23.7925 20.6125 21.6881 20.4759L20.4116 20.4129H8.9319L24.2372 5.10222L24.1743 3.83102C24.0751 1.71191 22.5267 0.180838 20.4116 0.0642999L19.135 0.00670065L0 0.00134258L0.0629573 1.2779C0.230397 3.35549 1.73735 4.92005 3.82432 5.04061L5.10222 5.10356H16.5819L1.27656 20.4142L1.33952 21.6908C1.46543 23.7938 2.9831 25.3169 5.10222 25.4522V25.4535ZM72.8094 3.73592C73.9942 4.92048 74.9341 6.32683 75.5753 7.87467C76.2166 9.4225 76.5466 11.0815 76.5466 12.7569C76.5466 14.4323 76.2166 16.0913 75.5753 17.6391C74.9341 19.187 73.9942 20.5933 72.8094 21.7779C70.4157 24.1696 67.1703 25.5132 63.7864 25.5132C60.4026 25.5132 57.1572 24.1696 54.7635 21.7779C49.7818 16.7962 49.7818 8.71758 54.7635 3.73592C55.9472 2.55175 57.3526 1.61234 58.8994 0.971334C60.4462 0.330323 62.1041 0.000264233 63.7784 3.07581e-06C65.4555 -0.00116137 67.1163 0.328316 68.666 0.969589C70.2156 1.61086 71.6236 2.55135 72.8094 3.73726V3.73592ZM69.1994 7.34859C70.6343 8.78458 71.4404 10.7316 71.4404 12.7616C71.4404 14.7916 70.6343 16.7386 69.1994 18.1746C67.7634 19.6095 65.8165 20.4155 63.7864 20.4155C61.7564 20.4155 59.8094 19.6095 58.3735 18.1746C56.9386 16.7386 56.1325 14.7916 56.1325 12.7616C56.1325 10.7316 56.9386 8.78458 58.3735 7.34859C59.8094 5.91369 61.7564 5.10766 63.7864 5.10766C65.8165 5.10766 67.7634 5.91369 69.1994 7.34859ZM37.0041 3.07581e-06C38.6786 0.000440118 40.3366 0.33071 41.8834 0.971952C43.4301 1.61319 44.8355 2.55285 46.0191 3.73726C51.0021 8.71758 51.0021 16.7975 46.0191 21.7779C43.6254 24.1696 40.38 25.5132 36.9961 25.5132C33.6123 25.5132 30.3668 24.1696 27.9731 21.7779C22.9915 16.7962 22.9915 8.71758 27.9731 3.73592C29.1569 2.55175 30.5622 1.61234 32.109 0.971334C33.6558 0.330323 35.3137 0.000264233 36.9881 3.07581e-06H37.0041ZM42.4091 7.34591C43.8444 8.78196 44.6507 10.7292 44.6507 12.7596C44.6507 14.7899 43.8444 16.7372 42.4091 18.1732C40.9731 19.6081 39.0261 20.4142 36.9961 20.4142C34.9661 20.4142 33.0191 19.6081 31.5831 18.1732C30.1482 16.7372 29.3422 14.7903 29.3422 12.7602C29.3422 10.7302 30.1482 8.78324 31.5831 7.34725C33.0191 5.91235 34.9661 5.10632 36.9961 5.10632C39.0261 5.10632 40.9731 5.91235 42.4091 7.34725V7.34591Z" fill="#2D8CFF"/>
</svg>
